<?xml version="1.0" encoding="utf-8"?>
<!-- Generator: Adobe Illustrator 26.1.0, SVG Export Plug-In . SVG Version: 6.00 Build 0)  -->
<svg version="1.1" id="Слой_1" xmlns="http://www.w3.org/2000/svg" xmlns:xlink="http://www.w3.org/1999/xlink" x="0px" y="0px"
	 viewBox="0 0 82.82 86.23" style="enable-background:new 0 0 82.82 86.23;" xml:space="preserve">

<path fill="#FFFFFF" class="st0" d="M16.76,75.05c-1.18,3.38-2.31,6.62-3.44,9.85c-1.84,0.1-2.76,0.09-4.83-0.74c1.84-7.34,5.67-11.3-2.39-21.28
	c-3.96-4.9-5.07-11.39-5.54-17.66c-0.4-5.33,0.12-10.63,4.69-14.41c1.41-1.17,1.19-2.58,1.2-4.03c0.02-4.95-0.11-9.9,0.04-14.84
	C6.72,4.53,10.92,0.28,18.22,0.24c15.5-0.1,30.99-0.1,46.49,0.01c7.09,0.05,11.23,4.21,11.6,11.35c0.16,3.12,0,6.26,0.04,9.4
	c0.05,4.47-0.68,8.88,3.47,12.6c2.51,2.25,2.67,6.33,2.51,9.8c-0.42,9.27-3.04,17.97-9.26,24.94c-2.69,3.01-2.92,5.37-1.53,8.66
	c0.89,2.09,1.46,4.32,2.15,6.45c-0.96,1.63-2.48,1.4-4.05,1.85c-1.25-3.53-2.43-6.89-3.62-10.24
	C49.64,75.05,33.41,75.05,16.76,75.05z M71.6,28.96c0-5.89,0.02-11.65-0.01-17.41c-0.02-4.44-2.56-6.88-6.71-6.93
	c-15.64-0.17-31.29-0.18-46.93,0c-4.44,0.05-6.83,2.75-6.78,7.38c0.05,5.59,0.01,11.19,0.01,16.98c6.21,1.98,10.29,6.38,13.26,11.86
	c1.03,1.91,2.33,2.36,4.33,2.34c8.4-0.09,16.8-0.08,25.19-0.01c1.95,0.02,3.33-0.3,4.36-2.27C61.24,35.34,65.41,31.04,71.6,28.96z
	 M41.23,70.75c6.26,0,12.52-0.07,18.78,0.03c2.82,0.05,5.21-0.84,7.14-2.75c7.83-7.78,11.13-17.29,10.26-28.2
	c-0.18-2.23-0.83-4.75-3.34-5.64c-2.67-0.94-4.78,0.58-6.62,2.32c-5.59,5.3-8.58,11.97-9.74,19.45c-0.46,2.97-1.6,4.22-4.78,4.13
	c-7.57-0.21-15.16-0.21-22.73,0c-3.29,0.09-4.65-1.05-5.14-4.3c-1.12-7.32-4.1-13.84-9.49-19.07c-1.94-1.88-4.17-3.66-7-2.45
	c-2.55,1.08-3.12,3.76-3.27,6.23c-0.61,10.36,2.59,19.43,9.74,27.01c2.11,2.24,4.72,3.36,7.93,3.29
	C29.04,70.66,35.14,70.75,41.23,70.75z M29.97,55.31c0.8,0.13,1.12,0.23,1.45,0.23c4.77,0.02,9.55,0.09,14.32,0.01
	c8.58-0.14,6.76,1.5,8.79-7.35c-8.77,0-17.53,0-26.55,0C28.69,50.74,29.3,52.92,29.97,55.31z"/>
</svg>
