{"accessors" : [{"bufferView" : 0, "byteOffset" : 0, "componentType" : 5123, "count" : 540, "type" : "SCALAR", "max" : [417], "min" : [0]}, {"bufferView" : 1, "byteOffset" : 0, "componentType" : 5126, "count" : 418, "type" : "VEC3", "max" : [0.5982130765914917, 1.1200000047683716, -0], "min" : [0, 0.46000000834465027, -0.5707550644874573], "name" : "POSITION"}, {"bufferView" : 1, "byteOffset" : 12, "componentType" : 5126, "count" : 418, "type" : "VEC3", "max" : [0.9999595284461975, 1.0000044107437134, 4.941685505488154E-15], "min" : [-1.0000044107437134, -1.0000044107437134, -1.0000044107437134], "name" : "NORMAL"}, {"bufferView" : 1, "byteOffset" : 24, "componentType" : 5126, "count" : 418, "type" : "VEC2", "max" : [0.44338902831077576, 0.312092661857605], "min" : [-0.4388008117675781, -0.6124234199523926], "name" : "TEXCOORD_0"}, {"bufferView" : 0, "byteOffset" : 1080, "componentType" : 5123, "count" : 624, "type" : "SCALAR", "max" : [478], "min" : [0]}, {"bufferView" : 2, "byteOffset" : 0, "componentType" : 5126, "count" : 479, "type" : "VEC3", "max" : [0.6000000238418579, 0.46000000834465027, -0.019999999552965164], "min" : [0.019999999552965164, 0, -0.5507550835609436], "name" : "POSITION"}, {"bufferView" : 2, "byteOffset" : 12, "componentType" : 5126, "count" : 479, "type" : "VEC3", "max" : [1.0000044107437134, 0.18636943399906158, 1.0000044107437134], "min" : [-1.0000044107437134, -0.24883334338665009, -1.0000044107437134], "name" : "NORMAL"}, {"bufferView" : 2, "byteOffset" : 24, "componentType" : 5126, "count" : 479, "type" : "VEC2", "max" : [0.44436612725257874, 0.0072855460457503796], "min" : [-0.44436612725257874, -0.25328144431114197], "name" : "TEXCOORD_0"}, {"bufferView" : 0, "byteOffset" : 2328, "componentType" : 5123, "count" : 48, "type" : "SCALAR", "max" : [39], "min" : [0]}, {"bufferView" : 3, "byteOffset" : 0, "componentType" : 5126, "count" : 40, "type" : "VEC3", "max" : [0.6000000238418579, 0.46000000834465027, -0.019999999552965164], "min" : [0.019999999552965164, 0, -0.5507550835609436], "name" : "POSITION"}, {"bufferView" : 3, "byteOffset" : 12, "componentType" : 5126, "count" : 40, "type" : "VEC3", "max" : [1.5039888424085387E-15, -1.0000044107437134, 1.1279915523970652E-15], "min" : [-3.3087753050680194E-14, -1.0000044107437134, -0], "name" : "NORMAL"}, {"bufferView" : 3, "byteOffset" : 24, "componentType" : 5126, "count" : 40, "type" : "VEC2", "max" : [-0.787401556968689, -0.787401556968689], "min" : [-23.622047424316406, -21.683271408081055], "name" : "TEXCOORD_0"}], "asset" : {"generator" : "Aspose.3D 22.10", "version" : "2.0"}, "buffers" : [{"uri" : "data:application/octet-stream;base64,", "byteLength" : 41224}], "bufferViews" : [{"buffer" : 0, "byteOffset" : 0, "byteLength" : 2424, "target" : 34963}, {"buffer" : 0, "byteOffset" : 2428, "byteLength" : 17280, "byteStride" : 32, "target" : 34962}, {"buffer" : 0, "byteOffset" : 19712, "byteLength" : 19968, "byteStride" : 32, "target" : 34962}, {"buffer" : 0, "byteOffset" : 39684, "byteLength" : 1536, "byteStride" : 32, "target" : 34962}], "images" : [{"uri" : "/Suede_Dark_Gray.jpg"}, {"uri" : "/Wood_Cherry_Original.jpg"}], "materials" : [{"name" : "Suede_Dark_Gray", "pbrMetallicRoughness" : {"baseColorFactor" : [0.33333333333333304, 0.33333333333333304, 0.33333333333333304, 1], "baseColorTexture" : {"index" : 0, "texCoord" : 0}, "metallicFactor" : 0, "roughnessFactor" : 0}, "emissiveFactor" : [0, 0, 0], "alphaMode" : "OPAQUE", "doubleSided" : false}, {"name" : "Wood_Cherry_Original", "pbrMetallicRoughness" : {"baseColorFactor" : [0.5960784313725491, 0.3372549019607841, 0.16470588235294106, 1], "baseColorTexture" : {"index" : 1, "texCoord" : 0}, "metallicFactor" : 0, "roughnessFactor" : 0}, "emissiveFactor" : [0, 0, 0], "alphaMode" : "OPAQUE", "doubleSided" : false}, {"name" : "FrontColor", "pbrMetallicRoughness" : {"baseColorFactor" : [1, 1, 1, 1], "metallicFactor" : 0, "roughnessFactor" : 0}, "emissiveFactor" : [0, 0, 0], "alphaMode" : "OPAQUE", "doubleSided" : false}], "meshes" : [{"primitives" : [{"attributes" : {"POSITION" : 1, "NORMAL" : 2, "TEXCOORD_0" : 3}, "indices" : 0, "material" : 0, "mode" : 4}, {"attributes" : {"POSITION" : 5, "NORMAL" : 6, "TEXCOORD_0" : 7}, "indices" : 4, "material" : 1, "mode" : 4}, {"attributes" : {"POSITION" : 9, "NORMAL" : 10, "TEXCOORD_0" : 11}, "indices" : 8, "material" : 2, "mode" : 4}], "name" : ""}], "nodes" : [{"mesh" : 0, "name" : "Mesh1"}, {"children" : [0], "name" : "Group1"}, {"children" : [1], "name" : "Model"}], "samplers" : [{"magFilter" : 9729, "minFilter" : 9729, "wrapS" : 10497, "wrapT" : 10497}, {"magFilter" : 9729, "minFilter" : 9729, "wrapS" : 10497, "wrapT" : 10497}], "scene" : 0, "scenes" : [{"nodes" : [2]}], "textures" : [{"sampler" : 0, "source" : 0, "name" : "Suede_Dark_Gray_texture"}, {"sampler" : 1, "source" : 1, "name" : "Wood_Cherry_Original_texture"}]}